<svg xmlns="http://www.w3.org/2000/svg" width="687" height="398" viewBox="0 0 687 398"><defs><style type="text/css"/></defs><g transform="translate(345 342.5) scale(1)"><g class="relationship"><g transform="translate(-291 1) rotate(-89.99999999999999)" stroke-width="5" stroke="#000000"><path d="M 59 0 L 205.6378493822517 0"/><polygon points="-24.8621506177483,0 -27.62461179749811,9.20820393249937 0,0 -27.62461179749811,-9.20820393249937" fill="#000000" transform="translate(230.5 0) rotate(0)" stroke="none"/></g><g transform="translate(-290.99999999999994 -131.31892469112586) rotate(1.2722218725854067e-14) translate(0 -13)"><g transform="translate(0 0)"><g transform="translate(-36.70833396911621 0)" fill="#ffffff" stroke="#000000" stroke-width="0"><rect x="0" y="0" width="73.41666793823242" height="26" rx="5" ry="5" stroke="none"/><text xml:space="preserve" x="5" y="17.5" stroke="none" text-anchor="left" font-family="sans-serif" font-size="16" font-weight="normal" fill="#000000">contains</text></g></g></g></g><g class="relationship"><g transform="translate(-291 1) rotate(0)" stroke-width="5" stroke="#000000"><path d="M 59 0 L 205.6378493822517 0"/><polygon points="-24.8621506177483,0 -27.62461179749811,9.20820393249937 0,0 -27.62461179749811,-9.20820393249937" fill="#000000" transform="translate(230.5 0) rotate(0)" stroke="none"/></g><g transform="translate(-158.68107530887414 1) rotate(0) translate(0 -13)"><g transform="translate(0 0)"><g transform="translate(-31.9375 0)" fill="#ffffff" stroke="#000000" stroke-width="0"><rect x="0" y="0" width="63.875" height="26" rx="5" ry="5" stroke="none"/><text xml:space="preserve" x="5" y="17.5" stroke="none" text-anchor="left" font-family="sans-serif" font-size="16" font-weight="normal" fill="#000000">release</text></g></g></g></g><g class="relationship"><g transform="translate(-1.5 1) rotate(-90)" stroke-width="5" stroke="#000000"><path d="M 59 0 L 205.6378493822517 0"/><polygon points="-24.8621506177483,0 -27.62461179749811,9.20820393249937 0,0 -27.62461179749811,-9.20820393249937" fill="#000000" transform="translate(230.5 0) rotate(0)" stroke="none"/></g><g transform="translate(-1.499999999999992 -131.31892469112586) rotate(0) translate(0 -13)"><g transform="translate(0 0)"><g transform="translate(-17.40625 0)" fill="#ffffff" stroke="#000000" stroke-width="0"><rect x="0" y="0" width="34.8125" height="26" rx="5" ry="5" stroke="none"/><text xml:space="preserve" x="5" y="17.5" stroke="none" text-anchor="left" font-family="sans-serif" font-size="16" font-weight="normal" fill="#000000">is a</text></g></g></g></g><g class="relationship"><g transform="translate(-1.5 1) rotate(0)" stroke-width="5" stroke="#000000"><path d="M 59 0 L 205.6378493822517 0"/><polygon points="-24.8621506177483,0 -27.62461179749811,9.20820393249937 0,0 -27.62461179749811,-9.20820393249937" fill="#000000" transform="translate(230.5 0) rotate(0)" stroke="none"/></g><g transform="translate(130.81892469112586 1) rotate(0) translate(0 -13)"><g transform="translate(0 0)"><g transform="translate(-31.0625 0)" fill="#ffffff" stroke="#000000" stroke-width="0"><rect x="0" y="0" width="62.125" height="26" rx="5" ry="5" stroke="none"/><text xml:space="preserve" x="5" y="17.5" stroke="none" text-anchor="left" font-family="sans-serif" font-size="16" font-weight="normal" fill="#000000">upload</text></g></g></g></g><g class="relationship"><g transform="translate(-1.5 1) rotate(-135)" stroke-width="5" stroke="#000000"><path d="M 59 0 L 325.5526756892627 0"/><polygon points="-24.8621506177483,0 -27.62461179749811,9.20820393249937 0,0 -27.62461179749811,-9.20820393249937" fill="#000000" transform="translate(350.41482630701097 0) rotate(0)" stroke="none"/></g><g transform="translate(-137.45990235165442 -134.95990235165442) rotate(45) translate(0 -13)"><g transform="translate(0 0)"><g transform="translate(-36.70833396911621 0)" fill="#ffffff" stroke="#000000" stroke-width="0"><rect x="0" y="0" width="73.41666793823242" height="26" rx="5" ry="5" stroke="none"/><text xml:space="preserve" x="5" y="17.5" stroke="none" text-anchor="left" font-family="sans-serif" font-size="16" font-weight="normal" fill="#000000">contains</text></g></g></g></g><g class="node"><g fill="#ffffff" stroke="#000000" stroke-width="4"><circle cx="-291" cy="1" r="52"/></g><g transform="translate(-291 1)"><g transform="scale(0.45703179296874996) translate(0 0)"><g transform="translate(0 0)"><g font-family="sans-serif" font-size="50" font-weight="normal" fill="#000000" text-anchor="middle"><text xml:space="preserve" x="0" y="-15.5" stroke="none">Zotero</text><text xml:space="preserve" x="0" y="44.5" stroke="none" text-anchor="middle">Group</text></g></g></g></g></g><g class="node"><g fill="#ffffff" stroke="#000000" stroke-width="4"><circle cx="-290.99999999999994" cy="-288.5" r="52"/></g><g transform="translate(-290.99999999999994 -288.5)"><g transform="scale(0.35156314843750003) translate(0 0)"><g transform="translate(0 0)"><g font-family="sans-serif" font-size="50" font-weight="normal" fill="#000000" text-anchor="middle"><text xml:space="preserve" x="0" y="-15.5" stroke="none">PDFs and</text><text xml:space="preserve" x="0" y="44.5" stroke="none" text-anchor="middle">metadata</text></g></g></g></g></g><g class="node"><g fill="#ffffff" stroke="#000000" stroke-width="4"><circle cx="-1.5" cy="1" r="52"/></g><g transform="translate(-1.5 1)"><g transform="scale(0.421875578125) translate(0 0)"><g transform="translate(0 0)"><g font-family="sans-serif" font-size="50" font-weight="normal" fill="#000000" text-anchor="middle"><text xml:space="preserve" x="0" y="-15.5" stroke="none">BatLit</text><text xml:space="preserve" x="0" y="44.5" stroke="none" text-anchor="middle">Version</text></g></g></g></g></g><g class="node"><g fill="#ffffff" stroke="#000000" stroke-width="4"><circle cx="-1.5" cy="-288.5" r="52"/></g><g transform="translate(-1.5 -288.5)"><g transform="scale(0.26367261132812503) translate(0 0)"><g transform="translate(0 0)"><g font-family="sans-serif" font-size="50" font-weight="normal" fill="#000000" text-anchor="middle"><text xml:space="preserve" x="0" y="-75.5" stroke="none">Versioned</text><text xml:space="preserve" x="0" y="-15.5" stroke="none" text-anchor="middle">Package</text><text xml:space="preserve" x="0" y="44.5" stroke="none" text-anchor="middle">of Digital</text><text xml:space="preserve" x="0" y="104.5" stroke="none" text-anchor="middle">Resources</text></g></g></g></g></g><g class="node"><g fill="#ffffff" stroke="#000000" stroke-width="4"><circle cx="288" cy="1" r="52"/></g><g transform="translate(288 1)"><g transform="scale(0.37109437890624997) translate(0 0)"><g transform="translate(0 0)"><g font-family="sans-serif" font-size="50" font-weight="normal" fill="#000000" text-anchor="middle"><text xml:space="preserve" x="0" y="-15.5" stroke="none">BatLit on</text><text xml:space="preserve" x="0" y="44.5" stroke="none" text-anchor="middle">Zenodo</text></g></g></g></g></g></g></svg>