<svg xmlns="http://www.w3.org/2000/svg" width="445" height="333" viewBox="0 0 445 333"><defs><style type="text/css"/></defs><g transform="translate(258 302.6000061035156) scale(1)"><g class="relationship"><g transform="translate(-204 -24) rotate(0)" stroke-width="5" stroke="#000000"><path d="M 59 0 L 252.6378493822517 0"/><polygon points="-24.8621506177483,0 -27.62461179749811,9.20820393249937 0,0 -27.62461179749811,-9.20820393249937" fill="#000000" transform="translate(277.5 0) rotate(0)" stroke="none"/></g><g transform="translate(-48.18107530887414 -24) rotate(0) translate(0 -13)"><g transform="translate(0 0)"><g transform="translate(-32.84375 0)" fill="#ffffff" stroke="#000000" stroke-width="0"><rect x="0" y="0" width="65.6875" height="26" rx="5" ry="5" stroke="none"/><text xml:space="preserve" x="5" y="17.5" stroke="none" text-anchor="left" font-family="sans-serif" font-size="16" font-weight="normal" fill="#000000">deposit</text></g></g></g></g><g class="relationship"><g transform="translate(-204 -24) rotate(-90)" stroke-width="5" stroke="#000000"><path d="M 59 0 L 140.73785548576734 0"/><polygon points="-24.8621506177483,0 -27.62461179749811,9.20820393249937 0,0 -27.62461179749811,-9.20820393249937" fill="#000000" transform="translate(165.60000610351562 0) rotate(0)" stroke="none"/></g><g transform="translate(-204 -123.86892774288367) rotate(0) translate(0 -13)"><g transform="translate(0 0)"><g transform="translate(-36.70833396911621 0)" fill="#ffffff" stroke="#000000" stroke-width="0"><rect x="0" y="0" width="73.41666793823242" height="26" rx="5" ry="5" stroke="none"/><text xml:space="preserve" x="5" y="17.5" stroke="none" text-anchor="left" font-family="sans-serif" font-size="16" font-weight="normal" fill="#000000">contains</text></g></g></g></g><g class="node"><g fill="#ffffff" stroke="#000000" stroke-width="4"><circle cx="-204" cy="-24" r="52"/></g><g transform="translate(-204 -24)"><g transform="scale(0.45703179296874996) translate(0 0)"><g transform="translate(0 0)"><g font-family="sans-serif" font-size="50" font-weight="normal" fill="#000000" text-anchor="middle"><text xml:space="preserve" x="0" y="-15.5" stroke="none">Zotero</text><text xml:space="preserve" x="0" y="44.5" stroke="none" text-anchor="middle">Group</text></g></g></g></g></g><g class="node"><g fill="#ffffff" stroke="#000000" stroke-width="4"><circle cx="132.5" cy="-24" r="52"/></g><g transform="translate(132.5 -24)"><g transform="scale(0.37109437890624997) translate(0 0)"><g transform="translate(0 0)"><g font-family="sans-serif" font-size="50" font-weight="normal" fill="#000000" text-anchor="middle"><text xml:space="preserve" x="0" y="-15.5" stroke="none">BatLit on</text><text xml:space="preserve" x="0" y="44.5" stroke="none" text-anchor="middle">Zenodo </text></g></g></g></g></g><g class="node"><g fill="#ffffff" stroke="#000000" stroke-width="4"><circle cx="-204" cy="-248.60000610351562" r="52"/></g><g transform="translate(-204 -248.60000610351562)"><g transform="scale(0.35156314843750003) translate(0 0)"><g transform="translate(0 0)"><g font-family="sans-serif" font-size="50" font-weight="normal" fill="#000000" text-anchor="middle"><text xml:space="preserve" x="0" y="-15.5" stroke="none">PDFs and</text><text xml:space="preserve" x="0" y="44.5" stroke="none" text-anchor="middle">metadata</text></g></g></g></g></g></g></svg>